HIERARCHY
ROOT hip
{
  OFFSET 0 0 0
  CHANNELS 6 Xposition Yposition Zposition Zrotation Yrotation Xrotation
  JOINT abdomen
  {
    OFFSET 0 20.6881 -0.73152
    CHANNELS 3 Zrotation Xrotation Yrotation
    JOINT chest
    {
      OFFSET 0 11.7043 -0.48768
      CHANNELS 3 Zrotation Xrotation Yrotation
      JOINT neck
      {
        OFFSET 0 22.1894 -2.19456
        CHANNELS 3 Zrotation Xrotation Yrotation
        JOINT head
        {
          OFFSET -0.24384 7.07133 1.2192
          CHANNELS 3 Zrotation Xrotation Yrotation
          JOINT leftEye
          {
            OFFSET 4.14528 8.04674 8.04672
            CHANNELS 3 Zrotation Xrotation Yrotation
            End Site
            {
              OFFSET 1 0 0
            }
          }
          JOINT rightEye
          {
            OFFSET -3.6576 8.04674 8.04672
            CHANNELS 3 Zrotation Xrotation Yrotation
            End Site
            {
              OFFSET 1 0 0
            }
          }
        }
      }
      JOINT rCollar
      {
        OFFSET -2.68224 19.2634 -4.8768
        CHANNELS 3 Zrotation Xrotation Yrotation
        JOINT rShldr
        {
          OFFSET -8.77824 -1.95073 1.46304
          CHANNELS 3 Zrotation Xrotation Yrotation
          JOINT rForeArm
          {
            OFFSET -28.1742 -1.7115 0.48768
            CHANNELS 3 Zrotation Xrotation Yrotation
            JOINT rHand
            {
              OFFSET -22.5879 0.773209 7.07136
              CHANNELS 3 Zrotation Xrotation Yrotation
              JOINT rThumb1
              {
                OFFSET -1.2192 -0.487915 3.41376
                CHANNELS 3 Zrotation Xrotation Yrotation
                JOINT rThumb2
                {
                  OFFSET -3.37035 -0.52449 3.41376
                  CHANNELS 3 Zrotation Xrotation Yrotation
                  End Site
                  {
                    OFFSET -1.78271 -1.18214 1.43049
                  }
                }
              }
              JOINT rIndex1
              {
                OFFSET -7.75947 0.938293 5.60832
                CHANNELS 3 Zrotation Xrotation Yrotation
                JOINT rIndex2
                {
                  OFFSET -2.54057 -0.884171 1.56538
                  CHANNELS 3 Zrotation Xrotation Yrotation
                  End Site
                  {
                    OFFSET -1.62519 -0.234802 1.16502
                  }
                }
              }
              JOINT rMid1
              {
                OFFSET -8.24714 1.18213 3.41376
                CHANNELS 3 Zrotation Xrotation Yrotation
                JOINT rMid2
                {
                  OFFSET -3.10165 -0.590103 1.0647
                  CHANNELS 3 Zrotation Xrotation Yrotation
                  End Site
                  {
                    OFFSET -2.48547 -0.328903 0.83742
                  }
                }
              }
              JOINT rRing1
              {
                OFFSET -8.82822 0.546677 1.51678
                CHANNELS 3 Zrotation Xrotation Yrotation
                JOINT rRing2
                {
                  OFFSET -2.60934 -0.819778 -0.0198488
                  CHANNELS 3 Zrotation Xrotation Yrotation
                  End Site
                  {
                    OFFSET -2.33842 -0.294052 0.168128
                  }
                }
              }
              JOINT rPinky1
              {
                OFFSET -8.27202 -0.0477905 -0.4584
                CHANNELS 3 Zrotation Xrotation Yrotation
                JOINT rPinky2
                {
                  OFFSET -1.82734 -0.647385 -0.700984
                  CHANNELS 3 Zrotation Xrotation Yrotation
                  End Site
                  {
                    OFFSET -1.69225 -0.51767 -0.607171
                  }
                }
              }
            }
          }
        }
      }
      JOINT lCollar
      {
        OFFSET 2.68224 19.2634 -4.8768
        CHANNELS 3 Zrotation Xrotation Yrotation
        JOINT lShldr
        {
          OFFSET 8.77824 -1.95073 1.46304
          CHANNELS 3 Zrotation Xrotation Yrotation
          JOINT lForeArm
          {
            OFFSET 28.1742 -1.7115 0.48768
            CHANNELS 3 Zrotation Xrotation Yrotation
            JOINT lHand
            {
              OFFSET 22.5879 0.773209 7.07136
              CHANNELS 3 Zrotation Xrotation Yrotation
              JOINT lThumb1
              {
                OFFSET 1.2192 -0.487915 3.41376
                CHANNELS 3 Zrotation Xrotation Yrotation
                JOINT lThumb2
                {
                  OFFSET 3.37035 -0.52449 3.41376
                  CHANNELS 3 Zrotation Xrotation Yrotation
                  End Site
                  {
                    OFFSET 1.78271 -1.18214 1.43049
                  }
                }
              }
              JOINT lIndex1
              {
                OFFSET 7.75947 0.938293 5.60832
                CHANNELS 3 Zrotation Xrotation Yrotation
                JOINT lIndex2
                {
                  OFFSET 2.54057 -0.884171 1.56538
                  CHANNELS 3 Zrotation Xrotation Yrotation
                  End Site
                  {
                    OFFSET 1.62519 -0.234802 1.16502
                  }
                }
              }
              JOINT lMid1
              {
                OFFSET 8.24714 1.18213 3.41376
                CHANNELS 3 Zrotation Xrotation Yrotation
                JOINT lMid2
                {
                  OFFSET 3.10165 -0.590103 1.0647
                  CHANNELS 3 Zrotation Xrotation Yrotation
                  End Site
                  {
                    OFFSET 2.48547 -0.328903 0.83742
                  }
                }
              }
              JOINT lRing1
              {
                OFFSET 8.82822 0.546677 1.51678
                CHANNELS 3 Zrotation Xrotation Yrotation
                JOINT lRing2
                {
                  OFFSET 2.60934 -0.819778 -0.0198488
                  CHANNELS 3 Zrotation Xrotation Yrotation
                  End Site
                  {
                    OFFSET 2.33842 -0.294052 0.168128
                  }
                }
              }
              JOINT lPinky1
              {
                OFFSET 8.27202 -0.0477905 -0.4584
                CHANNELS 3 Zrotation Xrotation Yrotation
                JOINT lPinky2
                {
                  OFFSET 1.82734 -0.647385 -0.700984
                  CHANNELS 3 Zrotation Xrotation Yrotation
                  End Site
                  {
                    OFFSET 1.69225 -0.51767 -0.607171
                  }
                }
              }
            }
          }
        }
      }
    }
  }
  JOINT rButtock
  {
    OFFSET -8.77824 4.35084 1.2192
    CHANNELS 3 Zrotation Xrotation Yrotation
    JOINT rThigh
    {
      OFFSET 0 -1.70687 -2.19456
      CHANNELS 3 Zrotation Xrotation Yrotation
      JOINT rShin
      {
        OFFSET 0 -36.8199 0.73152
        CHANNELS 3 Zrotation Xrotation Yrotation
        JOINT rFoot
        {
          OFFSET 0.73152 -45.1104 -5.12064
          CHANNELS 3 Zrotation Xrotation Yrotation
          End Site
          {
            OFFSET -1.1221 -3.69964 12.103
          }
        }
      }
    }
  }
  JOINT lButtock
  {
    OFFSET 8.77824 4.35084 1.2192
    CHANNELS 3 Zrotation Xrotation Yrotation
    JOINT lThigh
    {
      OFFSET 0 -1.70687 -2.19456
      CHANNELS 3 Zrotation Xrotation Yrotation
      JOINT lShin
      {
        OFFSET 0 -36.8199 0.73152
        CHANNELS 3 Zrotation Xrotation Yrotation
        JOINT lFoot
        {
          OFFSET -0.73152 -45.1104 -5.12064
          CHANNELS 3 Zrotation Xrotation Yrotation
          End Site
          {
            OFFSET 1.1221 -3.69964 12.103
          }
        }
      }
    }
  }
}
MOTION
Frames:	9
Frame Time:	0.00833333
18.9236 84.2888 -38.0624 -1.3785 -32.6876 16.5603 6.19672 13.704 -0.476556 -0.502268 -1.52478 0.0185659 0.533369 -5.00324 3.74006 -5.93758 31.1908 7.82617 -0.0 0.0 0.0 -0.0 0.0 0.0 -4.21039e-13 -2.72371e-14 5.55445e-13 -7.98083 44.5848 59.5358 -26.7649 -25.5824 60.2144 -0.583904 21.1817 3.12191 1.71505e-09 4.86563e-09 -4.62434e-11 2.95327e-09 8.58428e-09 -1.24589e-10 1.71506e-09 4.86564e-09 -4.62495e-11 7.73091 5.47488 0.417314 1.71505e-09 4.86564e-09 -4.62454e-11 2.90554 0.965183 0.102902 1.71505e-09 4.86563e-09 -4.62391e-11 10.2786 0.731801 0.0259123 1.71505e-09 4.86563e-09 -4.62296e-11 2.22167 -0.733487 -0.20892 -4.21363e-13 -2.72318e-14 5.5525e-13 8.47858 62.3775 -96.867 27.1088 -26.7084 -62.0091 15.1613 -69.2774 21.8076 -3.37845e-09 4.12533e-10 -1.98864e-09 -5.69e-09 7.42876e-10 -3.5838e-09 -3.37846e-09 4.12524e-10 -1.98863e-09 -7.73091 5.47488 -0.417314 -3.37845e-09 4.12525e-10 -1.98863e-09 -2.90554 0.965183 -0.102902 -3.37846e-09 4.12525e-10 -1.98864e-09 -10.2786 0.731801 -0.0259123 -3.37844e-09 4.1253e-10 -1.98864e-09 -2.22167 -0.733487 0.20892 -2.03217e-16 0.0 -3.88251e-19 -1.10159 -29.1117 5.63368 -0.0367545 17.5813 0.185517 -1.1601 -3.10297 -4.96351 2.03217e-16 0.0 3.88251e-19 5.89222 -24.68 -4.40691 0.10864 21.6525 -0.374822 4.78574 -10.1917 15.3724
18.8976 84.2851 -38.0841 -1.4421 -32.5937 16.7009 6.2047 13.6835 -0.442486 -0.525019 -1.45635 0.0276827 0.659581 -4.94554 3.6085 -6.21549 30.9977 7.59188 -0.0 0.0 0.0 -0.0 0.0 0.0 -1.54475e-13 1.07734e-13 1.81419e-13 -8.2526 44.3721 59.6914 -26.7327 -25.4831 60.0553 -0.588572 21.2606 3.13471 -5.18485e-10 1.47734e-09 -1.28042e-10 -9.0212e-10 2.55712e-09 -2.20018e-10 -5.18479e-10 1.47735e-09 -1.28047e-10 7.73091 5.47488 0.417314 -5.18488e-10 1.47735e-09 -1.28041e-10 2.90554 0.965183 0.102902 -5.18485e-10 1.47734e-09 -1.28036e-10 10.2786 0.731801 0.0259123 -5.18492e-10 1.47734e-09 -1.28026e-10 2.22167 -0.733487 -0.20892 -1.54767e-13 1.07747e-13 1.81223e-13 8.63544 62.2992 -97.065 27.0983 -26.6718 -61.9507 15.1155 -69.2365 21.7585 -2.20773e-09 1.73951e-10 -1.47133e-10 -3.77844e-09 3.20413e-10 -3.70788e-10 -2.20774e-09 1.73942e-10 -1.47128e-10 -7.73091 5.47488 -0.417314 -2.20774e-09 1.73942e-10 -1.47128e-10 -2.90554 0.965183 -0.102902 -2.20774e-09 1.73942e-10 -1.47133e-10 -10.2786 0.731801 -0.0259123 -2.20773e-09 1.73947e-10 -1.47138e-10 -2.22167 -0.733487 0.20892 -2.03217e-16 0.0 -3.88251e-19 -1.10937 -29.1584 5.43633 -0.0365586 17.5556 0.185953 -1.15269 -3.16538 -4.89145 2.03217e-16 0.0 3.88251e-19 5.89716 -24.7846 -4.61801 0.108959 21.6848 -0.376003 4.82067 -10.2001 15.4698
18.873 84.282 -38.1105 -1.5123 -32.4774 16.8431 6.212 13.6743 -0.381322 -0.552735 -1.38704 0.0444005 0.778146 -4.8975 3.46666 -6.45352 30.8117 7.33014 -0.0 0.0 0.0 -0.0 0.0 0.0 1.0592e-13 2.25412e-13 -1.71935e-13 -8.54055 44.1878 59.8144 -26.7041 -25.3957 59.915 -0.593961 21.3521 3.14956 -2.48271e-09 -1.6857e-09 -2.05295e-10 -4.29215e-09 -3.06489e-09 -3.1216e-10 -2.4827e-09 -1.68569e-09 -2.05299e-10 7.73091 5.47488 0.417314 -2.48271e-09 -1.6857e-09 -2.0529e-10 2.90554 0.965183 0.102902 -2.48271e-09 -1.6857e-09 -2.05286e-10 10.2786 0.731801 0.0259123 -2.48272e-09 -1.6857e-09 -2.05276e-10 2.22167 -0.733487 -0.20892 1.05673e-13 2.2543e-13 -1.72133e-13 8.92926 62.1687 -97.3817 27.0868 -26.6319 -61.8872 15.1192 -69.2397 21.7625 -9.34449e-10 -5.703e-11 1.54329e-09 -1.68297e-09 -9.00682e-11 2.58923e-09 -9.34459e-10 -5.70389e-11 1.54329e-09 -7.73091 5.47488 -0.417314 -9.34451e-10 -5.70397e-11 1.54329e-09 -2.90554 0.965183 -0.102902 -9.34453e-10 -5.70398e-11 1.54329e-09 -10.2786 0.731801 -0.0259123 -9.34443e-10 -5.70352e-11 1.54328e-09 -2.22167 -0.733487 0.20892 -2.03217e-16 0.0 -3.88251e-19 -1.10121 -29.2074 5.24558 -0.0363446 17.5181 0.1862 -1.14421 -3.21935 -4.8181 2.03217e-16 0.0 3.88251e-19 5.91871 -24.9038 -4.81465 0.109464 21.7287 -0.377026 4.85112 -10.1992 15.5593
18.8651 84.2815 -38.1281 -1.5298 -32.333 16.9208 6.22271 13.6967 -0.323218 -0.581433 -1.33304 0.0606578 0.847514 -4.86949 3.35261 -6.61249 30.6311 7.12204 -0.0 0.0 0.0 -0.0 0.0 0.0 2.43428e-13 2.70337e-13 -3.46581e-13 -8.73683 44.047 59.838 -26.6805 -25.3241 59.8012 -0.601583 21.4818 3.17059 -3.28197e-09 -3.26434e-09 -2.24887e-10 -5.67063e-09 -5.86269e-09 -3.28168e-10 -3.28197e-09 -3.26433e-09 -2.24891e-10 7.73091 5.47488 0.417314 -3.28198e-09 -3.26435e-09 -2.24881e-10 2.90554 0.965183 0.102902 -3.28197e-09 -3.26434e-09 -2.24878e-10 10.2786 0.731801 0.0259123 -3.28198e-09 -3.26434e-09 -2.24868e-10 2.22167 -0.733487 -0.20892 2.43212e-13 2.70356e-13 -3.4678e-13 9.35698 61.9879 -97.7971 27.0787 -26.6042 -61.8434 15.2366 -69.3439 21.8881 -1.22818e-10 -1.77246e-10 2.33609e-09 -3.32217e-10 -3.05976e-10 3.98914e-09 -1.22828e-10 -1.77254e-10 2.3361e-09 -7.73091 5.47488 -0.417314 -1.2282e-10 -1.77256e-10 2.3361e-09 -2.90554 0.965183 -0.102902 -1.22821e-10 -1.77256e-10 2.33609e-09 -10.2786 0.731801 -0.0259123 -1.22813e-10 -1.77252e-10 2.33609e-09 -2.22167 -0.733487 0.20892 -2.03217e-16 0.0 -3.88251e-19 -1.08092 -29.2426 5.07903 -0.035935 17.4695 0.186333 -1.14107 -3.24552 -4.79955 2.03217e-16 0.0 3.88251e-19 5.95598 -25.0333 -4.96931 0.110141 21.7756 -0.377151 4.85651 -10.1814 15.5836
18.849 84.281 -38.1573 -1.5123 -32.1742 16.9988 6.23508 13.7674 -0.27393 -0.605292 -1.3062 0.0749821 0.842559 -4.86273 3.27434 -6.67111 30.4376 6.98626 -0.0 0.0 0.0 -0.0 0.0 0.0 1.79415e-13 2.0211e-13 -2.16367e-13 -8.83523 43.9843 59.7242 -26.6674 -25.2848 59.7402 -0.612593 21.6672 3.20073 -2.08646e-09 -2.17526e-09 -1.46926e-10 -3.60456e-09 -3.90433e-09 -2.15887e-10 -2.08645e-09 -2.17525e-09 -1.4693e-10 7.73091 5.47488 0.417314 -2.08646e-09 -2.17527e-09 -1.46921e-10 2.90554 0.965183 0.102902 -2.08645e-09 -2.17526e-09 -1.46919e-10 10.2786 0.731801 0.0259123 -2.08647e-09 -2.17526e-09 -1.46911e-10 2.22167 -0.733487 -0.20892 1.79209e-13 2.02117e-13 -2.16563e-13 9.92764 61.7575 -98.3161 27.0773 -26.5994 -61.836 15.508 -69.5797 22.1779 -5.66957e-11 -1.05706e-10 1.6203e-09 -1.80678e-10 -1.86632e-10 2.76871e-09 -5.67053e-11 -1.05713e-10 1.62031e-09 -7.73091 5.47488 -0.417314 -5.66965e-11 -1.05715e-10 1.6203e-09 -2.90554 0.965183 -0.102902 -5.6699e-11 -1.05716e-10 1.6203e-09 -10.2786 0.731801 -0.0259123 -5.66902e-11 -1.05712e-10 1.62029e-09 -2.22167 -0.733487 0.20892 -2.03217e-16 0.0 -3.88251e-19 -1.05027 -29.2579 4.94154 -0.0352758 17.4119 0.186417 -1.1465 -3.23524 -4.86049 2.03217e-16 0.0 3.88251e-19 6.00968 -25.1755 -5.06311 0.111044 21.8267 -0.375924 4.82304 -10.1356 15.5086
18.821 84.2835 -38.2117 -1.585 -32.048 17.1212 6.24768 13.8717 -0.218099 -0.628011 -1.29538 0.0914472 0.789954 -4.87221 3.21223 -6.65329 30.2382 6.88023 -0.0 0.0 0.0 -0.0 0.0 0.0 -8.03483e-15 5.8845e-14 1.06418e-13 -8.88631 43.9806 59.5155 -26.6628 -25.271 59.7194 -0.626125 21.8909 3.23724 4.29162e-10 6.16367e-10 -8.31556e-12 7.41214e-10 1.09109e-09 -2.50786e-11 4.29162e-10 6.16375e-10 -8.31974e-12 7.73091 5.47488 0.417314 4.29156e-10 6.16364e-10 -8.31178e-12 2.90554 0.965183 0.102902 4.29169e-10 6.1637e-10 -8.31308e-12 10.2786 0.731801 0.0259123 4.29155e-10 6.16369e-10 -8.30602e-12 2.22167 -0.733487 -0.20892 -8.23804e-15 5.8834e-14 1.06226e-13 10.6309 61.4738 -98.9362 27.0795 -26.6071 -61.8485 15.9019 -69.9107 22.5979 -3.90698e-10 8.47419e-11 -6.86476e-11 -6.64122e-10 1.3992e-10 -1.37738e-10 -3.90707e-10 8.47358e-11 -6.86343e-11 -7.73091 5.47488 -0.417314 -3.90698e-10 8.47338e-11 -6.86424e-11 -2.90554 0.965183 -0.102902 -3.90702e-10 8.47327e-11 -6.86488e-11 -10.2786 0.731801 -0.0259123 -3.90692e-10 8.47352e-11 -6.86561e-11 -2.22167 -0.733487 0.20892 -2.03217e-16 0.0 -3.88251e-19 -1.00679 -29.2627 4.82377 -0.0344642 17.3444 0.186398 -1.15653 -3.2 -4.96775 2.03217e-16 0.0 3.88251e-19 6.08035 -25.3317 -5.11444 0.112157 21.8855 -0.373825 4.76472 -10.0688 15.3711
18.8301 84.2903 -38.2397 -1.6598 -31.7715 17.2061 6.26519 13.9832 -0.154198 -0.659868 -1.28227 0.110312 0.725738 -4.89904 3.16301 -6.58666 30.0699 6.79264 -0.0 0.0 0.0 -0.0 0.0 0.0 -2.00554e-13 -9.71425e-14 4.22149e-13 -8.86813 43.9716 59.2666 -26.6565 -25.2519 59.6884 -0.640639 22.1267 3.27587 2.90381e-09 3.39695e-09 1.28862e-10 5.01606e-09 6.06596e-09 1.64228e-10 2.90381e-09 3.39695e-09 1.28857e-10 7.73091 5.47488 0.417314 2.90381e-09 3.39695e-09 1.28864e-10 2.90554 0.965183 0.102902 2.90382e-09 3.39695e-09 1.2886e-10 10.2786 0.731801 0.0259123 2.90381e-09 3.39695e-09 1.28866e-10 2.22167 -0.733487 -0.20892 -2.00756e-13 -9.7171e-14 4.21958e-13 11.4338 61.1333 -99.625 27.0807 -26.6113 -61.8552 16.3761 -70.2933 23.1021 -7.45191e-10 2.66504e-10 -1.75761e-09 -1.18313e-09 4.53186e-10 -3.04536e-09 -7.45201e-10 2.665e-10 -1.75759e-09 -7.73091 5.47488 -0.417314 -7.4519e-10 2.66498e-10 -1.7576e-09 -2.90554 0.965183 -0.102902 -7.45196e-10 2.66496e-10 -1.75761e-09 -10.2786 0.731801 -0.0259123 -7.45185e-10 2.66498e-10 -1.75762e-09 -2.22167 -0.733487 0.20892 -2.03217e-16 0.0 -3.88251e-19 -0.947747 -29.2636 4.72207 -0.0335501 17.2628 0.186171 -1.16691 -3.15061 -5.09067 2.03217e-16 0.0 3.88251e-19 6.16699 -25.496 -5.1516 0.113361 21.9463 -0.371511 4.70254 -10.0004 15.2205
18.8165 84.3091 -38.2653 -1.7 -31.5823 17.2827 6.29236 14.0752 -0.0807251 -0.711162 -1.24859 0.131836 0.685964 -4.94428 3.12343 -6.49876 29.9692 6.71211 -0.0 0.0 0.0 -0.0 0.0 0.0 -2.79775e-13 -2.03538e-13 5.31202e-13 -8.75976 43.8934 59.0336 -26.638 -25.1964 59.597 -0.654453 22.3479 3.31224 3.97643e-09 4.45289e-09 2.02525e-10 6.86935e-09 7.96272e-09 2.72002e-10 3.97642e-09 4.45289e-09 2.02519e-10 7.73091 5.47488 0.417314 3.97642e-09 4.45289e-09 2.02525e-10 2.90554 0.965183 0.102902 3.97644e-09 4.45289e-09 2.0252e-10 10.2786 0.731801 0.0259123 3.97642e-09 4.45289e-09 2.02525e-10 2.22167 -0.733487 -0.20892 -2.79972e-13 -2.03574e-13 5.31004e-13 12.3039 60.7331 -100.35 27.0763 -26.5962 -61.8307 16.882 -70.6843 23.6388 -7.40542e-10 3.11987e-10 -2.47345e-09 -1.13828e-09 5.32673e-10 -4.26935e-09 -7.40551e-10 3.11985e-10 -2.47343e-09 -7.73091 5.47488 -0.417314 -7.40541e-10 3.11982e-10 -2.47344e-09 -2.90554 0.965183 -0.102902 -7.40548e-10 3.11981e-10 -2.47345e-09 -10.2786 0.731801 -0.0259123 -7.40536e-10 3.11982e-10 -2.47346e-09 -2.22167 -0.733487 0.20892 -2.03217e-16 0.0 -3.88251e-19 -0.870465 -29.2671 4.63278 -0.0325843 17.1627 0.18563 -1.17352 -3.09789 -5.19859 2.03217e-16 0.0 3.88251e-19 6.26824 -25.6624 -5.20304 0.114544 22.0034 -0.36964 4.6571 -9.95013 15.106
18.7852 84.3256 -38.3025 -1.7548 -31.4289 17.403 6.33787 14.1355 0.0248373 -0.809251 -1.1768 0.162369 0.692719 -5.02617 3.09324 -6.34771 29.9836 6.62163 -0.0 0.0 0.0 -0.0 0.0 0.0 -1.6798e-13 -2.3654e-13 2.83498e-13 -8.50285 43.7471 58.797 -26.6008 -25.0854 59.4159 -0.665382 22.519 3.3405 2.64283e-09 2.57471e-09 1.57183e-10 4.56653e-09 4.62048e-09 2.23048e-10 2.64282e-09 2.57472e-09 1.57175e-10 7.73091 5.47488 0.417314 2.64282e-09 2.57472e-09 1.57182e-10 2.90554 0.965183 0.102902 2.64284e-09 2.57471e-09 1.57178e-10 10.2786 0.731801 0.0259123 2.64282e-09 2.57471e-09 1.57182e-10 2.22167 -0.733487 -0.20892 -1.68167e-13 -2.36569e-13 2.83279e-13 13.3675 60.2206 -101.206 27.0634 -26.5519 -61.7595 17.4768 -71.1233 24.2683 -8.30548e-11 1.11287e-10 -1.5261e-09 -6.33965e-11 1.90622e-10 -2.61356e-09 -8.30627e-11 1.11287e-10 -1.52608e-09 -7.73091 5.47488 -0.417314 -8.30522e-11 1.11285e-10 -1.5261e-09 -2.90554 0.965183 -0.102902 -8.30604e-11 1.11285e-10 -1.5261e-09 -10.2786 0.731801 -0.0259123 -8.30477e-11 1.11286e-10 -1.52611e-09 -2.22167 -0.733487 0.20892 -2.03217e-16 0.0 -3.88251e-19 -0.761909 -29.2703 4.56738 -0.0315198 17.036 0.184609 -1.17556 -3.03518 -5.29557 2.03217e-16 0.0 3.88251e-19 6.39316 -25.83 -5.27809 0.115705 22.0547 -0.36839 4.63501 -9.92621 15.042
